<svg width="111" height="128" viewBox="0 0 111 128" fill="none" xmlns="http://www.w3.org/2000/svg">
    <path d="M18.7764 57.0979C18.7764 56.193 18.7723 55.3171 18.7683 54.4733C18.73 46.3399 18.7049 41.0126 22.5059 37.8405C22.5059 37.8405 22.4464 36.5001 22.71 34.7769C17.6095 37.7888 15.5222 40.5506 11.8159 45.4997C11.9421 46.2273 12.0868 46.9906 12.2498 47.7956C12.2498 47.7956 15.5131 47.9069 15.9793 52.2836C16.0731 53.1643 16.2262 53.8839 16.4138 54.4719C17.2515 57.0979 18.7764 57.0979 18.7764 57.0979Z" fill="#36312B"/>
    <path d="M6.65567 57.0979C6.65567 68.4707 18.2304 68.2977 20.9887 68.095C20.308 66.1485 19.7812 64.0817 19.3949 61.9122C19.3949 61.9122 18.2976 62.0856 16.9117 62.0334C14.4834 61.9418 11.1691 61.1578 11.3175 57.5356C11.4966 53.1621 15.9793 52.2836 15.9793 52.2836C15.5131 47.9069 12.2498 47.7956 12.2498 47.7956C9.80919 48.8504 6.65567 51.3294 6.65567 57.0979Z" fill="#F3BCA8"/>
    <path d="M15.9793 52.2836C15.9793 52.2836 11.4966 53.1621 11.3175 57.5356C11.1691 61.1578 14.4834 61.9418 16.9117 62.0334C16.9117 62.0334 17.844 61.0369 16.4138 59.7239C15.5026 58.4594 13.6484 57.9732 13.6484 56.2226C13.6484 54.2531 16.4138 54.4719 16.4138 54.4719C16.2262 53.8839 16.0731 53.1643 15.9793 52.2836Z" fill="#DE6655"/>
    <path d="M19.3949 61.9122C19.1182 60.3581 18.9137 58.7512 18.7764 57.0979C18.7764 57.0979 17.2515 57.0979 16.4138 54.4719C16.4138 54.4719 13.6484 54.2531 13.6484 56.2226C13.6484 57.9732 15.5026 58.4594 16.4138 59.7239C17.844 61.0369 16.9117 62.0334 16.9117 62.0334C18.2976 62.0856 19.3949 61.9122 19.3949 61.9122Z" fill="#ED9182"/>
    <path d="M77.1696 68.091C79.9279 68.2937 91.5026 68.4668 91.5026 57.094C91.5026 51.3254 88.3491 48.8465 85.9085 47.7917C85.9085 47.7917 82.8573 47.8957 82.2342 51.8596C82.2129 51.9951 82.1944 52.135 82.179 52.2796C82.179 52.2796 86.6617 53.1582 86.8409 57.5316C86.9893 61.1539 83.6749 61.9379 81.2466 62.0294C79.8607 62.0816 78.7627 61.9122 78.7627 61.9122C78.3765 64.0802 77.8499 66.1456 77.1696 68.091Z" fill="#F3BCA8"/>
    <path d="M86.8409 57.5316C86.6617 53.1582 82.179 52.2796 82.179 52.2796C82.0852 53.1604 81.9321 53.88 81.7445 54.4679C81.7445 54.4679 84.5099 54.2491 84.5099 56.2186C84.5099 57.9693 82.6557 58.4555 81.7445 59.72C80.3143 61.033 81.2466 62.0294 81.2466 62.0294C83.6749 61.9379 86.9893 61.1539 86.8409 57.5316Z" fill="#DE6655"/>
    <path d="M81.7445 54.4679C80.9069 57.0939 79.3819 57.094 79.3819 57.094C79.2445 58.7486 79.0398 60.3568 78.7627 61.9122C78.7627 61.9122 79.8607 62.0816 81.2466 62.0294C81.2466 62.0294 80.3143 61.033 81.7445 59.72C82.6557 58.4555 84.5099 57.9693 84.5099 56.2186C84.5099 54.2491 81.7445 54.4679 81.7445 54.4679Z" fill="#ED9182"/>
    <path d="M25.7692 43.5302C25.303 39.3724 40.6871 36.5275 40.6871 39.5912C40.6871 40.9298 40.142 40.989 36.9681 41.334C35.9909 41.4402 34.7645 41.5735 33.2281 41.7795C31.8303 41.967 29.9795 42.5134 28.4713 42.9587C26.9608 43.4047 25.7937 43.7492 25.7692 43.5302Z" fill="#36312B"/>
    <path d="M72.3877 43.5302C72.8539 39.3724 57.4698 36.5275 57.4698 39.5912C57.4698 40.9298 58.0149 40.989 61.1888 41.334C62.166 41.4402 63.3923 41.5735 64.9287 41.7795C66.3266 41.967 68.1773 42.5134 69.6856 42.9587C71.1961 43.4047 72.3632 43.7492 72.3877 43.5302Z" fill="#36312B"/>
    <path d="M61.1993 52.2836C61.1993 54.9424 62.7891 57.0979 64.4626 57.0979C66.7935 57.0979 67.2597 54.9424 67.2597 52.2836C67.2597 49.6247 65.67 47.4692 63.9964 47.4692C61.6655 47.4692 61.1993 49.6247 61.1993 52.2836Z" fill="#36312B"/>
    <path d="M36.9576 52.2836C36.9576 54.9424 35.3679 57.0979 33.6943 57.0979C31.3634 57.0979 30.8972 54.9424 30.8972 52.2836C30.8972 49.6247 32.487 47.4692 34.1605 47.4692C36.4914 47.4692 36.9576 49.6247 36.9576 52.2836Z" fill="#36312B"/>
    <path d="M35.0929 61.0369C35.0929 62.9706 32.6926 64.5382 29.7317 64.5382C26.7709 64.5382 24.3706 63.6629 24.3706 61.0369C24.3706 59.1032 26.7709 57.5356 29.7317 57.5356C32.6926 57.5356 35.0929 58.4109 35.0929 61.0369Z" fill="#ED9182"/>
    <path d="M63.0641 61.0369C63.0641 59.1032 65.4643 57.5356 68.4252 57.5356C71.3861 57.5356 73.7863 58.4109 73.7863 61.0369C73.7863 62.9706 71.3861 64.5382 68.4252 64.5382C65.4643 64.5382 63.0641 63.6629 63.0641 61.0369Z" fill="#ED9182"/>
    <path d="M50.0108 54.4719C50.0108 53.9885 49.5934 53.5966 49.0784 53.5966C48.5635 53.5966 48.1461 53.9885 48.1461 54.4719V54.4999C48.1461 57.8461 48.1461 58.1556 47.691 60.9024C47.6118 61.38 47.9601 61.8275 48.4689 61.9018C48.9777 61.9761 49.4544 61.6491 49.5335 61.1714C50.0095 58.2987 50.0108 57.8988 50.0108 54.4719Z" fill="#DE6655"/>
    <path fill-rule="evenodd" clip-rule="evenodd" d="M35.5591 26.4612C34.3883 27.5604 32.6097 27.5232 30.7962 27.4854C29.1651 27.4513 27.5058 27.4167 26.2354 28.2079C23.9462 29.6335 23.0536 32.5304 22.71 34.7769C22.4464 36.5001 22.5059 37.8405 22.5059 37.8405C18.7049 41.0126 18.73 46.3399 18.7683 54.4733C18.7723 55.3171 18.7764 56.193 18.7764 57.0979C18.9137 58.7512 19.1182 60.3581 19.3949 61.9122C19.7812 64.0817 20.308 66.1485 20.9887 68.095C23.3685 74.9007 27.6285 80.2367 34.3317 83.3579C38.3356 85.2223 43.2112 86.2964 49.0785 86.4216C54.9449 86.2964 59.8201 85.2222 63.8238 83.3579C70.5285 80.236 74.7894 74.8983 77.1696 68.091C77.8499 66.1456 78.3765 64.0802 78.7627 61.9122C79.0398 60.3568 79.2445 58.7486 79.3819 57.094C79.3819 55.2569 79.3648 53.5474 79.3082 51.9594C79.0677 45.2241 78.1138 40.6739 74.7186 37.8405C74.7186 37.8405 74.8478 36.3852 74.6734 34.558C74.3793 31.4763 73.2217 27.3365 69.1244 27.3365C66.7935 27.3365 64.9287 26.4612 63.9964 24.7105C61.1993 26.8989 59.3345 28.2119 52.8079 27.3365C47.8067 31.2806 40.6612 29.2553 35.5591 26.4612ZM40.6871 39.5912C40.6871 36.5275 25.303 39.3724 25.7692 43.5302C25.7937 43.7492 26.9608 43.4047 28.4713 42.9587C29.9795 42.5134 31.8303 41.967 33.2281 41.7795C34.7645 41.5735 35.9909 41.4402 36.9681 41.334C40.142 40.989 40.6871 40.9298 40.6871 39.5912ZM57.4698 39.5912C57.4698 36.5275 72.8539 39.3724 72.3877 43.5302C72.3632 43.7492 71.1961 43.4047 69.6856 42.9587C68.1773 42.5134 66.3266 41.967 64.9287 41.7795C63.3923 41.5735 62.166 41.4402 61.1888 41.334C58.0149 40.989 57.4698 40.9298 57.4698 39.5912ZM33.6943 57.0979C35.3679 57.0979 36.9576 54.9424 36.9576 52.2836C36.9576 49.6247 36.4914 47.4692 34.1605 47.4692C32.487 47.4692 30.8972 49.6247 30.8972 52.2836C30.8972 54.9424 31.3634 57.0979 33.6943 57.0979ZM64.4626 57.0979C62.7891 57.0979 61.1993 54.9424 61.1993 52.2836C61.1993 49.6247 61.6655 47.4692 63.9964 47.4692C65.67 47.4692 67.2597 49.6247 67.2597 52.2836C67.2597 54.9424 66.7935 57.0979 64.4626 57.0979ZM29.7317 64.5382C32.6926 64.5382 35.0929 62.9706 35.0929 61.0369C35.0929 58.4109 32.6926 57.5356 29.7317 57.5356C26.7709 57.5356 24.3706 59.1032 24.3706 61.0369C24.3706 63.6629 26.7709 64.5382 29.7317 64.5382ZM68.4252 57.5356C65.4643 57.5356 63.0641 59.1032 63.0641 61.0369C63.0641 63.6629 65.4643 64.5382 68.4252 64.5382C71.3861 64.5382 73.7863 62.9706 73.7863 61.0369C73.7863 58.4109 71.3861 57.5356 68.4252 57.5356ZM49.0784 53.5966C49.5934 53.5966 50.0108 53.9885 50.0108 54.4719C50.0108 57.8988 50.0095 58.2987 49.5335 61.1714C49.4544 61.6491 48.9777 61.9761 48.4689 61.9018C47.9601 61.8275 47.6118 61.38 47.691 60.9024C48.1461 58.1556 48.1461 57.8461 48.1461 54.4999V54.4719C48.1461 53.9885 48.5635 53.5966 49.0784 53.5966Z" fill="#F4C7B0"/>
    <path d="M63.8238 83.3579C59.8201 85.2222 54.9449 86.2964 49.0785 86.4216C43.2112 86.2964 38.3356 85.2223 34.3317 83.3579C34.3629 83.9204 34.6442 86.005 34.6988 88.1723C34.6988 88.1723 39.2872 94.2996 49.0778 94.2996C58.8684 94.2996 63.4568 88.1723 63.4568 88.1723C63.5113 86.005 63.7927 83.9204 63.8238 83.3579Z" fill="#DE6655"/>
    <path d="M64.228 93.2054C63.545 92.1794 63.4072 90.1417 63.4568 88.1723C63.4568 88.1723 58.8684 94.2996 49.0778 94.2996C39.2872 94.2996 34.6988 88.1723 34.6988 88.1723C34.7483 90.1417 34.6106 92.1794 33.9275 93.2054C33.3373 94.092 32.4403 94.8678 31.3635 95.5566C31.3259 95.5814 30.6983 96.0316 31.8297 97.8009C33.9275 101.082 39.7548 105.46 49.0778 105.241C58.4007 105.46 64.228 101.082 66.3259 97.8009C67.4573 96.0316 66.8296 95.5813 66.792 95.5566C65.7153 94.8678 64.8182 94.092 64.228 93.2054Z" fill="#F4C7B0"/>
    <path d="M49.0778 105.241C39.7548 105.46 33.9275 101.082 31.8297 97.8009C30.6983 96.0316 31.3259 95.5814 31.3635 95.5566C30.5213 96.0951 29.5675 96.4821 28.5664 96.9256C28.4032 102.838 37.4239 108.743 49.0778 108.743C60.7316 108.743 69.7523 102.838 69.5891 96.9256C68.588 96.4821 67.6342 96.0951 66.792 95.5566C66.8296 95.5813 67.4573 96.0316 66.3259 97.8009C64.228 101.082 58.4007 105.46 49.0778 105.241Z" fill="#FCFCFC"/>
    <path d="M28.5664 96.9256C28.3333 96.2691 25.8275 97.1275 25.7693 98.2386C27.634 106.117 36.9577 111.369 49.0778 111.369C61.1978 111.369 70.5215 106.117 72.3863 98.2386C72.328 97.1275 69.8222 96.2691 69.5891 96.9256C69.7523 102.838 60.7316 108.743 49.0778 108.743C37.4239 108.743 28.4032 102.838 28.5664 96.9256Z" fill="#779EA5"/>
    <path fill-rule="evenodd" clip-rule="evenodd" d="M11.6201 115.454C11.449 114.747 10.6996 114.304 9.94643 114.465C9.19324 114.626 8.72141 115.329 8.89259 116.036C9.69103 119.335 11.0396 122.413 13.0208 125.46C13.5958 125.561 14.1933 125.662 14.8139 125.761C15.4235 125.859 16.0555 125.955 16.7104 126.05C16.6699 125.937 16.6123 125.827 16.5369 125.724C14.0633 122.347 12.4859 119.031 11.6201 115.454Z" fill="#779EA5"/>
    <path fill-rule="evenodd" clip-rule="evenodd" d="M86.2794 115.454C86.4505 114.747 87.1999 114.304 87.9531 114.465C88.7063 114.626 89.1781 115.329 89.0069 116.036C88.2041 119.353 86.845 122.448 84.8458 125.511C83.7102 125.708 82.4884 125.901 81.176 126.088C81.2167 125.962 81.2786 125.839 81.3626 125.724C83.8362 122.347 85.4136 119.031 86.2794 115.454Z" fill="#779EA5"/>
    <path d="M20.4081 99.9893C-2.90116 108.624 0.129024 121.873 0.129024 121.873C0.129024 121.873 3.45808 123.775 13.0208 125.46C11.0396 122.413 9.69103 119.335 8.89259 116.036C8.72141 115.329 9.19324 114.626 9.94643 114.465C10.6996 114.304 11.449 114.747 11.6201 115.454C12.4859 119.031 14.0633 122.347 16.5369 125.724C16.6123 125.827 16.6699 125.937 16.7104 126.05C24.2001 127.132 34.691 128 49.0778 128C63.2931 128 73.7047 127.153 81.176 126.088C81.2167 125.962 81.2786 125.839 81.3626 125.724C83.8362 122.347 85.4136 119.031 86.2794 115.454C86.4505 114.747 87.1999 114.304 87.9531 114.465C88.7063 114.626 89.1781 115.329 89.0069 116.036C88.2041 119.353 86.845 122.448 84.8458 125.511C94.6305 123.814 98.0265 121.873 98.0265 121.873C98.0265 121.873 101.057 108.624 77.7474 99.9893C76.2443 99.4325 74.3258 98.9416 72.3863 98.2386C70.5215 106.117 61.1978 111.369 49.0778 111.369C36.9577 111.369 27.634 106.117 25.7693 98.2386C23.8297 98.9416 21.9112 99.4325 20.4081 99.9893Z" fill="#94B6BF"/>
    <path fill-rule="evenodd" clip-rule="evenodd" d="M63.9964 24.7105C61.1993 26.8989 59.3345 28.2119 52.8079 27.3365C47.8067 31.2806 40.6612 29.2553 35.5591 26.4612C34.3883 27.5604 32.6097 27.5232 30.7962 27.4854C29.1651 27.4513 27.5058 27.4167 26.2354 28.2079C23.9462 29.6335 23.0536 32.5304 22.71 34.7769C17.6095 37.7888 15.5222 40.5506 11.8159 45.4997C10.6534 38.7981 11.0607 35.135 13.1822 29.9625C13.1822 29.9625 10.3851 27.3365 10.3851 21.6468C10.3851 12.6747 22.7869 11.0028 22.7869 11.0028C22.7869 11.0028 24.7866 0.00326136 34.7853 0.0047273C34.8039 0.00473003 34.8399 0.00438627 34.8925 0.00388304C37.6659 -0.0226495 86.7786 -0.492502 86.7786 26.0034C89.7403 27.7805 88.3551 33.3926 87.0493 38.6829C86.1508 42.3228 85.29 45.8104 85.9085 47.7917C85.9085 47.7917 82.8573 47.8957 82.2342 51.8596C82.457 50.151 83.2791 43.7298 83.2791 42.001C83.2791 38.2838 74.7186 37.8405 74.7186 37.8405C74.7186 37.8405 74.8478 36.3852 74.6734 34.558C74.3793 31.4763 73.2217 27.3365 69.1244 27.3365C66.7935 27.3365 64.9287 26.4612 63.9964 24.7105Z" fill="#4D3F36"/>
    <path d="M79.3819 57.094C79.3819 57.094 80.9069 57.0939 81.7445 54.4679C81.9321 53.88 82.0852 53.1604 82.179 52.2796C82.1944 52.135 82.2129 51.9951 82.2342 51.8596C82.457 50.151 83.2791 43.7298 83.2791 42.001C83.2791 38.2838 74.7186 37.8405 74.7186 37.8405C78.1138 40.6739 79.0677 45.2241 79.3082 51.9594C79.3648 53.5474 79.3819 55.2569 79.3819 57.094Z" fill="#36312B"/>
    <path d="M41.1205 76.1429C40.6646 76.6 39.5249 77.1142 38.8411 76.6C37.9293 75.9143 38.3852 74.7715 38.3852 74.7715C41.995 65.7226 56.658 65.7225 60.2678 74.7715C60.2678 74.7715 60.7237 75.9143 59.8119 76.6C59.1281 77.1142 57.9884 76.6 57.5325 76.1429C53.558 72.1577 45.095 72.1578 41.1205 76.1429Z" fill="#DE6655"/>
    <path d="M103.176 58.257C97.6914 58.257 96.3202 52.3145 103.176 39.0581C110.033 52.3145 108.661 58.257 103.176 58.257Z" fill="#1DC1FD"/>
    <path d="M99.8014 38.1435C96.831 38.1435 96.0884 34.8893 99.8014 27.6299C103.514 34.8893 102.772 38.1435 99.8014 38.1435Z" fill="#1DC1FD"/>
    <path d="M108.486 42.2576C105.516 42.2576 104.773 39.0034 108.486 31.7439C112.199 39.0034 111.456 42.2576 108.486 42.2576Z" fill="#1DC1FD"/>
</svg>
