<svg width="128" height="128" viewBox="0 0 128 128" fill="none" xmlns="http://www.w3.org/2000/svg">
    <path d="M35.9891 57.0979C35.9891 56.193 35.9849 55.3171 35.981 54.4733C35.9426 46.3399 35.9175 41.0126 39.719 37.8405C39.719 37.8405 39.6595 36.5001 39.9231 34.7769C34.822 37.7888 32.7344 40.5506 29.0276 45.4997C29.1538 46.2273 29.2986 46.9906 29.4616 47.7956C29.4616 47.7956 32.7253 47.9069 33.1916 52.2836C33.2854 53.1643 33.4385 53.8839 33.6261 54.4719C34.4639 57.0979 35.9891 57.0979 35.9891 57.0979Z" fill="#36312B"/>
    <path d="M23.8667 57.0979C23.8667 68.4707 35.4429 68.2977 38.2016 68.095C37.5208 66.1485 36.9939 64.0817 36.6076 61.9122C36.6076 61.9122 35.5102 62.0856 34.124 62.0334C31.6955 61.9418 28.3807 61.1578 28.5291 57.5356C28.7083 53.1621 33.1916 52.2836 33.1916 52.2836C32.7253 47.9069 29.4616 47.7956 29.4616 47.7956C27.0207 48.8504 23.8667 51.3294 23.8667 57.0979Z" fill="#ffe4e6"/>
    <path d="M33.1916 52.2836C33.1916 52.2836 28.7083 53.1621 28.5291 57.5356C28.3807 61.1578 31.6955 61.9418 34.124 62.0334C34.124 62.0334 35.0565 61.0369 33.6261 59.7239C32.7148 58.4594 30.8603 57.9732 30.8603 56.2226C30.8603 54.2531 33.6261 54.4719 33.6261 54.4719C33.4385 53.8839 33.2854 53.1643 33.1916 52.2836Z" fill="#be123c"/>
    <path d="M36.6076 61.9122C36.3309 60.3581 36.1263 58.7512 35.9891 57.0979C35.9891 57.0979 34.4639 57.0979 33.6261 54.4719C33.6261 54.4719 30.8603 54.2531 30.8603 56.2226C30.8603 57.9732 32.7148 58.4594 33.6261 59.7239C35.0565 61.0369 34.124 62.0334 34.124 62.0334C35.5102 62.0856 36.6076 61.9122 36.6076 61.9122Z" fill="#fda4af"/>
    <path d="M94.3898 68.091C97.1484 68.2937 108.725 68.4668 108.725 57.0939C108.725 51.3254 105.571 48.8465 103.13 47.7917C103.13 47.7917 100.078 47.8957 99.4549 51.8596C99.4337 51.9951 99.4152 52.135 99.3998 52.2796C99.3998 52.2796 103.883 53.1582 104.062 57.5316C104.211 61.1539 100.896 61.9379 98.4673 62.0294C97.0812 62.0816 95.983 61.9122 95.983 61.9122C95.5968 64.0802 95.0701 66.1456 94.3898 68.091Z" fill="#ffe4e6"/>
    <path d="M104.062 57.5316C103.883 53.1582 99.3998 52.2796 99.3998 52.2796C99.306 53.1604 99.1528 53.88 98.9653 54.4679C98.9653 54.4679 101.731 54.2491 101.731 56.2186C101.731 57.9693 99.8766 58.4555 98.9653 59.72C97.5348 61.033 98.4673 62.0294 98.4673 62.0294C100.896 61.9379 104.211 61.1539 104.062 57.5316Z" fill="#be123c"/>
    <path d="M98.9653 54.4679C98.1275 57.0939 96.6023 57.0939 96.6023 57.0939C96.4649 58.7486 96.2601 60.3568 95.983 61.9122C95.983 61.9122 97.0812 62.0816 98.4673 62.0294C98.4673 62.0294 97.5348 61.033 98.9653 59.72C99.8766 58.4555 101.731 57.9693 101.731 56.2186C101.731 54.2491 98.9653 54.4679 98.9653 54.4679Z" fill="#fda4af"/>
    <path d="M42.9827 43.5302C42.5165 39.3724 57.9025 36.5275 57.9025 39.5912C57.9025 40.9298 57.3574 40.989 54.1831 41.334C53.2058 41.4402 51.9792 41.5735 50.4426 41.7795C49.0446 41.967 47.1936 42.5134 45.6852 42.9587C44.1744 43.4047 43.0073 43.7492 42.9827 43.5302Z" fill="#36312B"/>
    <path d="M89.6072 43.5302C90.0735 39.3724 74.6874 36.5275 74.6874 39.5912C74.6874 40.9298 75.2325 40.989 78.4068 41.334C79.3842 41.4402 80.6107 41.5735 82.1473 41.7795C83.5454 41.967 85.3963 42.5134 86.9047 42.9587C88.4155 43.4047 89.5827 43.7492 89.6072 43.5302Z" fill="#36312B"/>
    <path d="M78.4174 52.2836C78.4174 54.9424 80.0074 57.0979 81.6811 57.0979C84.0123 57.0979 84.4786 54.9424 84.4786 52.2836C84.4786 49.6247 82.8886 47.4692 81.2149 47.4692C78.8837 47.4692 78.4174 49.6247 78.4174 52.2836Z" fill="#36312B"/>
    <path d="M54.1726 52.2836C54.1726 54.9424 52.5826 57.0979 50.9089 57.0979C48.5776 57.0979 48.1114 54.9424 48.1114 52.2836C48.1114 49.6247 49.7014 47.4692 51.3751 47.4692C53.7063 47.4692 54.1726 49.6247 54.1726 52.2836Z" fill="#36312B"/>
    <path d="M52.3076 61.0369C52.3076 62.9706 49.907 64.5382 46.9458 64.5382C43.9845 64.5382 41.584 63.6629 41.584 61.0369C41.584 59.1032 43.9845 57.5356 46.9458 57.5356C49.907 57.5356 52.3076 58.4109 52.3076 61.0369Z" fill="#fda4af"/>
    <path d="M80.2824 61.0369C80.2824 59.1032 82.6829 57.5356 85.6442 57.5356C88.6054 57.5356 91.006 58.4109 91.006 61.0369C91.006 62.9706 88.6054 64.5382 85.6442 64.5382C82.6829 64.5382 80.2824 63.6629 80.2824 61.0369Z" fill="#fda4af"/>
    <path d="M57.9025 67.1642C57.4363 66.7265 56.2707 66.2342 55.5713 66.7265C54.6388 67.383 55.1051 68.4772 55.1051 68.4772C58.7969 77.1412 73.7929 77.1412 77.4848 68.4772C77.4848 68.4772 77.9511 67.3831 77.0186 66.7266C76.3192 66.2342 75.1536 66.7266 74.6873 67.1642C70.6226 70.9798 61.9673 70.9798 57.9025 67.1642Z" fill="#be123c"/>
    <path d="M67.2274 54.4719C67.2274 53.9885 66.81 53.5966 66.295 53.5966C65.78 53.5966 65.3625 53.9885 65.3625 54.4719V54.4999C65.3625 57.8461 65.3625 58.1556 64.9073 60.9024C64.8281 61.38 65.1765 61.8275 65.6854 61.9018C66.1943 61.9761 66.671 61.6491 66.7501 61.1714C67.2262 58.2987 67.2274 57.8988 67.2274 54.4719Z" fill="#be123c"/>
    <path fill-rule="evenodd" clip-rule="evenodd" d="M52.7739 26.4612C51.6029 27.5604 49.8241 27.5232 48.0104 27.4854C46.379 27.4513 44.7195 27.4167 43.4489 28.2079C41.1595 29.6335 40.2668 32.5304 39.9231 34.7769C39.6595 36.5001 39.719 37.8405 39.719 37.8405C35.9175 41.0126 35.9426 46.3399 35.981 54.4733C35.9849 55.3171 35.9891 56.193 35.9891 57.0979C36.1263 58.7512 36.3309 60.3581 36.6076 61.9122C36.9939 64.0817 37.5208 66.1485 38.2016 68.095C40.5817 74.9007 44.8422 80.2367 51.5463 83.3579C55.5507 85.2223 60.4269 86.2964 66.295 86.4216C72.1622 86.2964 77.038 85.2222 81.0423 83.3579C87.7477 80.236 92.0092 74.8983 94.3898 68.091C95.0701 66.1456 95.5968 64.0802 95.983 61.9122C96.2601 60.3568 96.4649 58.7486 96.6023 57.0939C96.6023 55.2569 96.5853 53.5474 96.5286 51.9594C96.2881 45.2241 95.3341 40.6738 91.9384 37.8405C91.9384 37.8405 92.0676 36.3852 91.8932 34.558C91.5991 31.4763 90.4413 27.3365 86.3435 27.3365C84.0123 27.3365 82.1473 26.4612 81.2148 24.7105C78.4174 26.8989 76.5524 28.2119 70.0249 27.3365C65.0231 31.2806 57.8766 29.2553 52.7739 26.4612ZM57.9025 39.5912C57.9025 36.5275 42.5165 39.3724 42.9827 43.5302C43.0073 43.7492 44.1744 43.4047 45.6852 42.9587C47.1936 42.5134 49.0446 41.967 50.4426 41.7795C51.9792 41.5735 53.2058 41.4402 54.1831 41.334C57.3574 40.989 57.9025 40.9298 57.9025 39.5912ZM74.6874 39.5912C74.6874 36.5275 90.0735 39.3724 89.6072 43.5302C89.5827 43.7492 88.4155 43.4047 86.9047 42.9587C85.3963 42.5134 83.5454 41.967 82.1473 41.7795C80.6107 41.5735 79.3842 41.4402 78.4068 41.334C75.2325 40.989 74.6874 40.9298 74.6874 39.5912ZM50.9089 57.0979C52.5826 57.0979 54.1726 54.9424 54.1726 52.2836C54.1726 49.6247 53.7063 47.4692 51.3751 47.4692C49.7014 47.4692 48.1114 49.6247 48.1114 52.2836C48.1114 54.9424 48.5776 57.0979 50.9089 57.0979ZM81.6811 57.0979C80.0074 57.0979 78.4174 54.9424 78.4174 52.2836C78.4174 49.6247 78.8837 47.4692 81.2149 47.4692C82.8886 47.4692 84.4786 49.6247 84.4786 52.2836C84.4786 54.9424 84.0123 57.0979 81.6811 57.0979ZM46.9458 64.5382C49.907 64.5382 52.3076 62.9706 52.3076 61.0369C52.3076 58.4109 49.907 57.5356 46.9458 57.5356C43.9845 57.5356 41.584 59.1032 41.584 61.0369C41.584 63.6629 43.9845 64.5382 46.9458 64.5382ZM85.6442 57.5356C82.6829 57.5356 80.2824 59.1032 80.2824 61.0369C80.2824 63.6629 82.6829 64.5382 85.6442 64.5382C88.6054 64.5382 91.006 62.9706 91.006 61.0369C91.006 58.4109 88.6054 57.5356 85.6442 57.5356ZM55.5713 66.7265C56.2707 66.2342 57.4363 66.7265 57.9025 67.1642C61.9673 70.9798 70.6226 70.9798 74.6873 67.1642C75.1536 66.7266 76.3192 66.2342 77.0186 66.7266C77.9511 67.3831 77.4848 68.4772 77.4848 68.4772C73.7929 77.1412 58.7969 77.1412 55.1051 68.4772C55.1051 68.4772 54.6388 67.383 55.5713 66.7265ZM66.295 53.5966C66.81 53.5966 67.2274 53.9885 67.2274 54.4719C67.2274 57.8988 67.2262 58.2987 66.7501 61.1714C66.671 61.6491 66.1943 61.9761 65.6854 61.9018C65.1765 61.8275 64.8281 61.38 64.9073 60.9024C65.3625 58.1556 65.3625 57.8461 65.3625 54.4999V54.4719C65.3625 53.9885 65.78 53.5966 66.295 53.5966Z" fill="#fecdd3"/>
    <path d="M81.0423 83.3579C77.038 85.2222 72.1622 86.2964 66.295 86.4216C60.4269 86.2964 55.5507 85.2223 51.5463 83.3579C51.5775 83.9204 51.8589 86.005 51.9134 88.1723C51.9134 88.1723 56.5024 94.2996 66.2943 94.2996C76.0862 94.2996 80.6751 88.1723 80.6751 88.1723C80.7297 86.005 81.0111 83.9204 81.0423 83.3579Z" fill="#be123c"/>
    <path d="M81.4465 93.2054C80.7634 92.1794 80.6256 90.1417 80.6751 88.1723C80.6751 88.1723 76.0862 94.2996 66.2943 94.2996C56.5024 94.2996 51.9134 88.1723 51.9134 88.1723C51.963 90.1417 51.8252 92.1794 51.1421 93.2054C50.5518 94.092 49.6546 94.8678 48.5777 95.5566C48.5402 95.5814 47.9124 96.0316 49.044 97.8009C51.1421 101.082 56.9701 105.46 66.2943 105.241C75.6184 105.46 81.4465 101.082 83.5446 97.8009C84.6762 96.0316 84.0484 95.5813 84.0108 95.5566C82.9339 94.8678 82.0368 94.092 81.4465 93.2054Z" fill="#fecdd3"/>
    <path d="M66.2943 105.241C56.9701 105.46 51.1421 101.082 49.044 97.8009C47.9124 96.0316 48.5402 95.5814 48.5777 95.5566C47.7354 96.0951 46.7815 96.4821 45.7803 96.9256C45.6171 102.838 54.6389 108.743 66.2943 108.743C77.9497 108.743 86.9715 102.838 86.8083 96.9256C85.8071 96.4821 84.8531 96.0951 84.0108 95.5566C84.0484 95.5813 84.6762 96.0316 83.5446 97.8009C81.4465 101.082 75.6184 105.46 66.2943 105.241Z" fill="#FCFCFC"/>
    <path d="M45.7803 96.9256C45.5471 96.2691 43.0411 97.1275 42.9828 98.2386C44.8478 106.117 54.1727 111.369 66.2943 111.369C78.4159 111.369 87.7408 106.117 89.6058 98.2386C89.5475 97.1275 87.0414 96.2691 86.8083 96.9256C86.9715 102.838 77.9497 108.743 66.2943 108.743C54.6389 108.743 45.6171 102.838 45.7803 96.9256Z" fill="#779EA5"/>
    <path fill-rule="evenodd" clip-rule="evenodd" d="M28.8318 115.454C28.6606 114.747 27.9112 114.304 27.1579 114.465C26.4046 114.626 25.9327 115.329 26.1039 116.036C26.9025 119.335 28.2512 122.413 30.2327 125.46C30.8077 125.561 31.4053 125.662 32.0261 125.761C32.6357 125.859 33.2678 125.955 33.9227 126.05C33.8823 125.937 33.8246 125.827 33.7492 125.724C31.2753 122.347 29.6978 119.031 28.8318 115.454Z" fill="#779EA5"/>
    <path fill-rule="evenodd" clip-rule="evenodd" d="M103.501 115.454C103.672 114.747 104.421 114.304 105.175 114.465C105.928 114.626 106.4 115.329 106.229 116.036C105.426 119.353 104.066 122.448 102.067 125.511C100.931 125.708 99.7093 125.901 98.3966 126.088C98.4374 125.962 98.4993 125.839 98.5833 125.724C101.057 122.347 102.635 119.031 103.501 115.454Z" fill="#779EA5"/>
    <path d="M37.621 99.9893C14.3087 108.624 17.3392 121.873 17.3392 121.873C17.3392 121.873 20.6687 123.775 30.2327 125.46C28.2512 122.413 26.9025 119.335 26.1039 116.036C25.9327 115.329 26.4046 114.626 27.1579 114.465C27.9112 114.304 28.6606 114.747 28.8318 115.454C29.6978 119.031 31.2753 122.347 33.7492 125.724C33.8246 125.827 33.8823 125.937 33.9227 126.05C41.4134 127.132 51.9056 128 66.2943 128C80.5114 128 90.9244 127.153 98.3966 126.088C98.4374 125.962 98.4993 125.839 98.5833 125.724C101.057 122.347 102.635 119.031 103.501 115.454C103.672 114.747 104.421 114.304 105.175 114.465C105.928 114.626 106.4 115.329 106.229 116.036C105.426 119.353 104.066 122.448 102.067 125.511C111.853 123.814 115.249 121.873 115.249 121.873C115.249 121.873 118.28 108.624 94.9676 99.9893C93.4643 99.4325 91.5456 98.9416 89.6058 98.2386C87.7408 106.117 78.4159 111.369 66.2943 111.369C54.1727 111.369 44.8478 106.117 42.9828 98.2386C41.043 98.9416 39.1242 99.4325 37.621 99.9893Z" fill="#94B6BF"/>
    <path d="M118.183 28.6495C118.183 28.6495 117.464 33.262 115.378 35.2145C113.293 37.1671 108.366 37.8405 108.366 37.8405C108.366 37.8405 113.293 38.514 115.378 40.4665C117.464 42.4191 118.183 47.0315 118.183 47.0315C118.183 47.0315 118.903 42.4191 120.988 40.4665C123.073 38.514 128 37.8405 128 37.8405C128 37.8405 123.073 37.1671 120.988 35.2145C118.903 33.262 118.183 28.6495 118.183 28.6495Z" fill="#FFEA00"/>
    <path d="M112.106 20.7715C112.106 20.7715 111.832 22.5286 111.038 23.2725C110.243 24.0163 108.366 24.2728 108.366 24.2728C108.366 24.2728 110.243 24.5294 111.038 25.2732C111.832 26.017 112.106 27.7742 112.106 27.7742C112.106 27.7742 112.38 26.017 113.175 25.2732C113.969 24.5294 115.846 24.2728 115.846 24.2728C115.846 24.2728 113.969 24.0163 113.175 23.2725C112.38 22.5286 112.106 20.7715 112.106 20.7715Z" fill="#FFEA00"/>
    <path d="M9.81682 45.3089C9.81682 45.3089 9.09749 49.9213 7.01201 51.8739C4.92654 53.8264 0 54.4999 0 54.4999C0 54.4999 4.92654 55.1734 7.01201 57.1259C9.09749 59.0784 9.81682 63.6909 9.81682 63.6909C9.81682 63.6909 10.5361 59.0784 12.6216 57.1259C14.7071 55.1734 19.6336 54.4999 19.6336 54.4999C19.6336 54.4999 14.7071 53.8264 12.6216 51.8739C10.5361 49.9213 9.81682 45.3089 9.81682 45.3089Z" fill="#FFEA00"/>
    <path fill-rule="evenodd" clip-rule="evenodd" d="M81.2148 24.7105C78.4174 26.8989 76.5524 28.2119 70.0249 27.3365C65.0231 31.2806 57.8766 29.2553 52.7739 26.4612C51.6029 27.5604 49.8241 27.5232 48.0104 27.4854C46.379 27.4513 44.7195 27.4167 43.4489 28.2079C41.1595 29.6335 40.2668 32.5304 39.9231 34.7769C34.822 37.7888 32.7344 40.5506 29.0276 45.4997C27.865 38.7981 28.2723 35.135 30.3941 29.9625C30.3941 29.9625 27.5966 27.3365 27.5966 21.6468C27.5966 12.6747 40 11.0028 40 11.0028C40 11.0028 42 0.00326136 52 0.00472729C52.0186 0.00473002 52.0546 0.00438626 52.1072 0.00388303C54.8809 -0.0226496 104 -0.492502 104 26.0034C106.962 27.7805 105.577 33.3926 104.271 38.6829C103.372 42.3228 102.511 45.8104 103.13 47.7917C103.13 47.7917 100.078 47.8957 99.4549 51.8596C99.6778 50.151 100.5 43.7298 100.5 42.001C100.5 38.2838 91.9384 37.8405 91.9384 37.8405C91.9384 37.8405 92.0676 36.3852 91.8932 34.558C91.5991 31.4763 90.4413 27.3365 86.3435 27.3365C84.0123 27.3365 82.1473 26.4612 81.2148 24.7105Z" fill="#4D3F36"/>
    <path d="M96.6023 57.0939C96.6023 57.0939 98.1275 57.0939 98.9653 54.4679C99.1528 53.88 99.306 53.1604 99.3998 52.2796C99.4152 52.135 99.4337 51.9951 99.4549 51.8596C99.6778 50.151 100.5 43.7298 100.5 42.001C100.5 38.2838 91.9384 37.8405 91.9384 37.8405C95.3341 40.6738 96.2881 45.2241 96.5286 51.9594C96.5853 53.5474 96.6023 55.2569 96.6023 57.0939Z" fill="#36312B"/>
</svg>

