<svg width="98" height="128" viewBox="0 0 98 128" fill="none" xmlns="http://www.w3.org/2000/svg">
    <path d="M18.7467 57.0979C18.7467 56.193 18.7426 55.3171 18.7386 54.4733C18.7003 46.3399 18.6752 41.0126 22.4703 37.8405C22.4703 37.8405 22.4109 36.5001 22.674 34.7769C17.5816 37.7888 15.4976 40.5506 11.7972 45.4997C11.9232 46.2273 12.0676 46.9906 12.2304 47.7956C12.2304 47.7956 15.4885 47.9069 15.954 52.2836C16.0476 53.1643 16.2005 53.8839 16.3878 54.4719C17.2241 57.0979 18.7467 57.0979 18.7467 57.0979Z" fill="#36312B"/>
    <path d="M6.64512 57.0979C6.64512 68.4707 18.2015 68.2977 20.9554 68.095C20.2758 66.1485 19.7498 64.0817 19.3642 61.9122C19.3642 61.9122 18.2686 62.0856 16.8849 62.0334C14.4605 61.9418 11.1514 61.1578 11.2995 57.5356C11.4784 53.1621 15.954 52.2836 15.954 52.2836C15.4885 47.9069 12.2304 47.7956 12.2304 47.7956C9.79365 48.8504 6.64512 51.3294 6.64512 57.0979Z" fill="#F3BCA8"/>
    <path d="M15.954 52.2836C15.954 52.2836 11.4784 53.1621 11.2995 57.5356C11.1514 61.1578 14.4605 61.9418 16.8849 62.0334C16.8849 62.0334 17.8158 61.0369 16.3878 59.7239C15.478 58.4595 13.6268 57.9732 13.6268 56.2226C13.6268 54.2531 16.3878 54.4719 16.3878 54.4719C16.2005 53.8839 16.0476 53.1643 15.954 52.2836Z" fill="#DE6655"/>
    <path d="M19.3642 61.9122C19.0879 60.3581 18.8837 58.7512 18.7467 57.0979C18.7467 57.0979 17.2241 57.0979 16.3878 54.4719C16.3878 54.4719 13.6268 54.2531 13.6268 56.2226C13.6268 57.9732 15.478 58.4595 16.3878 59.7239C17.8158 61.0369 16.8849 62.0334 16.8849 62.0334C18.2686 62.0856 19.3642 61.9122 19.3642 61.9122Z" fill="#ED9182"/>
    <path d="M77.0473 68.091C79.8012 68.2937 91.3577 68.4668 91.3577 57.094C91.3577 51.3254 88.2091 48.8465 85.7724 47.7917C85.7724 47.7917 82.726 47.8957 82.1039 51.8596C82.0826 51.9951 82.0642 52.135 82.0488 52.2796C82.0488 52.2796 86.5244 53.1582 86.7032 57.5316C86.8514 61.1539 83.5423 61.9379 81.1179 62.0294C79.7341 62.0816 78.6379 61.9122 78.6379 61.9122C78.2523 64.0802 77.7265 66.1456 77.0473 68.091Z" fill="#F3BCA8"/>
    <path d="M86.7032 57.5316C86.5244 53.1582 82.0488 52.2796 82.0488 52.2796C81.9551 53.1604 81.8023 53.88 81.615 54.4679C81.615 54.4679 84.376 54.2491 84.376 56.2186C84.376 57.9693 82.5248 58.4555 81.615 59.72C80.187 61.033 81.1179 62.0294 81.1179 62.0294C83.5423 61.9379 86.8514 61.1539 86.7032 57.5316Z" fill="#DE6655"/>
    <path d="M81.615 54.4679C80.7787 57.0939 79.2561 57.094 79.2561 57.094C79.119 58.7486 78.9145 60.3568 78.6379 61.9122C78.6379 61.9122 79.7341 62.0816 81.1179 62.0294C81.1179 62.0294 80.187 61.033 81.615 59.72C82.5248 58.4555 84.376 57.9693 84.376 56.2186C84.376 54.2491 81.615 54.4679 81.615 54.4679Z" fill="#ED9182"/>
    <path d="M25.7283 43.5302C25.2629 39.3724 40.6226 36.5275 40.6226 39.5912C40.6226 40.9298 40.0784 40.989 36.9096 41.334C35.9339 41.4402 34.7095 41.5735 33.1755 41.7795C31.7798 41.967 29.932 42.5134 28.4262 42.9587C26.918 43.4047 25.7529 43.7492 25.7283 43.5302Z" fill="#36312B"/>
    <path d="M72.273 43.5302C72.7384 39.3724 57.3787 36.5275 57.3787 39.5912C57.3787 40.9298 57.9229 40.989 61.0918 41.334C62.0674 41.4402 63.2919 41.5735 64.8259 41.7795C66.2215 41.967 68.0693 42.5134 69.5751 42.9587C71.0833 43.4047 72.2485 43.7492 72.273 43.5302Z" fill="#36312B"/>
    <path d="M61.1023 52.2836C61.1023 54.9424 62.6896 57.0979 64.3605 57.0979C66.6877 57.0979 67.1532 54.9424 67.1532 52.2836C67.1532 49.6247 65.5659 47.4692 63.895 47.4692C61.5678 47.4692 61.1023 49.6247 61.1023 52.2836Z" fill="#36312B"/>
    <path d="M36.8991 52.2836C36.8991 54.9424 35.3118 57.0979 33.6409 57.0979C31.3137 57.0979 30.8483 54.9424 30.8483 52.2836C30.8483 49.6247 32.4355 47.4692 34.1064 47.4692C36.4336 47.4692 36.8991 49.6247 36.8991 52.2836Z" fill="#36312B"/>
    <path d="M35.0373 61.0369C35.0373 62.9706 32.6408 64.5382 29.6846 64.5382C26.7285 64.5382 24.332 63.6629 24.332 61.0369C24.332 59.1032 26.7285 57.5356 29.6846 57.5356C32.6408 57.5356 35.0373 58.4109 35.0373 61.0369Z" fill="#ED9182"/>
    <path d="M62.9641 61.0369C62.9641 59.1032 65.3606 57.5356 68.3168 57.5356C71.2729 57.5356 73.6694 58.4109 73.6694 61.0369C73.6694 62.9706 71.2729 64.5382 68.3168 64.5382C65.3606 64.5382 62.9641 63.6629 62.9641 61.0369Z" fill="#ED9182"/>
    <path d="M49.9316 54.4719C49.9316 53.9885 49.5148 53.5966 49.0007 53.5966C48.4865 53.5966 48.0698 53.9885 48.0698 54.4719V54.4999C48.0698 57.8461 48.0698 58.1556 47.6154 60.9024C47.5364 61.3801 47.8841 61.8275 48.3921 61.9018C48.9001 61.9761 49.376 61.6491 49.455 61.1714C49.9303 58.2987 49.9316 57.8988 49.9316 54.4719Z" fill="#DE6655"/>
    <path fill-rule="evenodd" clip-rule="evenodd" d="M35.5028 26.4612C34.3338 27.5604 32.558 27.5232 30.7474 27.4854C29.1189 27.4513 27.4622 27.4167 26.1938 28.2079C23.9082 29.6335 23.0171 32.5304 22.674 34.7769C22.4109 36.5001 22.4703 37.8405 22.4703 37.8405C18.6752 41.0126 18.7003 46.3399 18.7386 54.4733C18.7426 55.3171 18.7467 56.193 18.7467 57.0979C18.8837 58.7512 19.0879 60.3581 19.3642 61.9122C19.7498 64.0817 20.2758 66.1485 20.9554 68.095C23.3315 74.9007 27.5847 80.2367 34.2773 83.3579C38.2748 85.2223 43.1427 86.2964 49.0007 86.4216C54.8579 86.2964 59.7253 85.2222 63.7227 83.3579C70.4167 80.236 74.6708 74.8983 77.0473 68.091C77.7265 66.1456 78.2523 64.0802 78.6379 61.9122C78.9145 60.3568 79.119 58.7486 79.2561 57.094C79.2561 55.2569 79.2391 53.5474 79.1825 51.9594C78.9424 45.2241 77.99 40.6739 74.6002 37.8405C74.6002 37.8405 74.7292 36.3852 74.5551 34.558C74.2614 31.4763 73.1056 27.3365 69.0149 27.3365C66.6876 27.3365 64.8259 26.4612 63.895 24.7105C61.1023 26.8989 59.2405 28.2119 52.7243 27.3365C47.7309 31.2806 40.5968 29.2553 35.5028 26.4612ZM40.6226 39.5912C40.6226 36.5275 25.2629 39.3724 25.7283 43.5302C25.7529 43.7492 26.918 43.4047 28.4262 42.9587C29.932 42.5134 31.7798 41.967 33.1755 41.7795C34.7095 41.5735 35.9339 41.4402 36.9096 41.334C40.0784 40.989 40.6226 40.9298 40.6226 39.5912ZM57.3787 39.5912C57.3787 36.5275 72.7384 39.3724 72.273 43.5302C72.2485 43.7492 71.0833 43.4047 69.5751 42.9587C68.0693 42.5134 66.2215 41.967 64.8259 41.7795C63.2919 41.5735 62.0674 41.4402 61.0918 41.334C57.9229 40.989 57.3787 40.9298 57.3787 39.5912ZM33.6409 57.0979C35.3118 57.0979 36.8991 54.9424 36.8991 52.2836C36.8991 49.6247 36.4336 47.4692 34.1064 47.4692C32.4355 47.4692 30.8483 49.6247 30.8483 52.2836C30.8483 54.9424 31.3137 57.0979 33.6409 57.0979ZM64.3605 57.0979C62.6896 57.0979 61.1023 54.9424 61.1023 52.2836C61.1023 49.6247 61.5678 47.4692 63.895 47.4692C65.5659 47.4692 67.1532 49.6247 67.1532 52.2836C67.1532 54.9424 66.6877 57.0979 64.3605 57.0979ZM29.6846 64.5382C32.6408 64.5382 35.0373 62.9706 35.0373 61.0369C35.0373 58.4109 32.6408 57.5356 29.6846 57.5356C26.7285 57.5356 24.332 59.1032 24.332 61.0369C24.332 63.6629 26.7285 64.5382 29.6846 64.5382ZM68.3168 57.5356C65.3606 57.5356 62.9641 59.1032 62.9641 61.0369C62.9641 63.6629 65.3606 64.5382 68.3168 64.5382C71.2729 64.5382 73.6694 62.9706 73.6694 61.0369C73.6694 58.4109 71.2729 57.5356 68.3168 57.5356ZM49.0007 53.5966C49.5148 53.5966 49.9316 53.9885 49.9316 54.4719C49.9316 57.8988 49.9303 58.2987 49.455 61.1714C49.376 61.6491 48.9001 61.9761 48.3921 61.9018C47.8841 61.8275 47.5364 61.3801 47.6154 60.9024C48.0698 58.1556 48.0698 57.8461 48.0698 54.4999V54.4719C48.0698 53.9885 48.4865 53.5966 49.0007 53.5966Z" fill="#F4C7B0"/>
    <path d="M63.7227 83.3579C59.7253 85.2222 54.8579 86.2964 49.0007 86.4216C43.1427 86.2964 38.2748 85.2223 34.2773 83.3579C34.3084 83.9204 34.5893 86.005 34.6438 88.1723C34.6438 88.1723 39.2249 94.2996 49 94.2996C58.7751 94.2996 63.3562 88.1723 63.3562 88.1723C63.4106 86.005 63.6916 83.9204 63.7227 83.3579Z" fill="#DE6655"/>
    <path d="M64.1263 93.2054C63.4443 92.1794 63.3067 90.1417 63.3562 88.1723C63.3562 88.1723 58.7751 94.2996 49 94.2996C39.2249 94.2996 34.6438 88.1723 34.6438 88.1723C34.6933 90.1417 34.5557 92.1794 33.8737 93.2054C33.2845 94.092 32.3889 94.8678 31.3138 95.5566C31.2763 95.5814 30.6496 96.0316 31.7792 97.8009C33.8737 101.082 39.6918 105.46 49 105.241C58.3082 105.46 64.1263 101.082 66.2208 97.8009C67.3504 96.0316 66.7237 95.5814 66.6862 95.5566C65.6111 94.8678 64.7155 94.092 64.1263 93.2054Z" fill="#F4C7B0"/>
    <path d="M49 105.241C39.6918 105.46 33.8737 101.082 31.7792 97.8009C30.6496 96.0316 31.2763 95.5814 31.3138 95.5566C30.4729 96.0951 29.5206 96.4821 28.5211 96.9256C28.3582 102.838 37.3646 108.743 49 108.743C60.6354 108.743 69.6418 102.838 69.4789 96.9256C68.4793 96.4821 67.5271 96.0951 66.6862 95.5566C66.7237 95.5814 67.3504 96.0316 66.2208 97.8009C64.1263 101.082 58.3082 105.46 49 105.241Z" fill="#FCFCFC"/>
    <path d="M28.5211 96.9256C28.2884 96.2691 25.7866 97.1275 25.7284 98.2386C27.5902 106.117 36.8992 111.369 49 111.369C61.1009 111.369 70.4098 106.117 72.2716 98.2386C72.2134 97.1275 69.7116 96.2691 69.4789 96.9256C69.6418 102.838 60.6354 108.743 49 108.743C37.3646 108.743 28.3582 102.838 28.5211 96.9256Z" fill="#779EA5"/>
    <path fill-rule="evenodd" clip-rule="evenodd" d="M11.6017 115.454C11.4308 114.747 10.6827 114.304 9.93067 114.465C9.17867 114.626 8.70759 115.329 8.8785 116.036C9.67568 119.335 11.0221 122.413 13.0001 125.46C13.5742 125.561 14.1708 125.662 14.7905 125.761C15.3991 125.859 16.0301 125.955 16.6839 126.05C16.6435 125.937 16.586 125.827 16.5107 125.724C14.041 122.347 12.4662 119.031 11.6017 115.454Z" fill="#779EA5"/>
    <path fill-rule="evenodd" clip-rule="evenodd" d="M86.1426 115.454C86.3136 114.747 87.0617 114.304 87.8137 114.465C88.5657 114.626 89.0368 115.329 88.8659 116.036C88.0643 119.353 86.7074 122.448 84.7114 125.511C83.5775 125.708 82.3577 125.901 81.0473 126.088C81.088 125.962 81.1498 125.839 81.2337 125.724C83.7033 122.347 85.2782 119.031 86.1426 115.454Z" fill="#779EA5"/>
    <path d="M20.3758 99.9893C-2.89657 108.624 0.128819 121.873 0.128819 121.873C0.128819 121.873 3.4526 123.775 13.0001 125.46C11.0221 122.413 9.67568 119.335 8.8785 116.036C8.70759 115.329 9.17867 114.626 9.93067 114.465C10.6827 114.304 11.4308 114.747 11.6017 115.454C12.4662 119.031 14.041 122.347 16.5107 125.724C16.586 125.827 16.6435 125.937 16.6839 126.05C24.1617 127.132 34.636 128 49 128C63.1928 128 73.588 127.153 81.0473 126.088C81.088 125.962 81.1498 125.839 81.2337 125.724C83.7033 122.347 85.2782 119.031 86.1426 115.454C86.3136 114.747 87.0617 114.304 87.8137 114.465C88.5657 114.626 89.0368 115.329 88.8659 116.036C88.0643 119.353 86.7074 122.448 84.7114 125.511C94.4806 123.814 97.8712 121.873 97.8712 121.873C97.8712 121.873 100.897 108.624 77.6242 99.9893C76.1235 99.4325 74.208 98.9416 72.2716 98.2386C70.4098 106.117 61.1009 111.369 49 111.369C36.8992 111.369 27.5902 106.117 25.7284 98.2386C23.792 98.9416 21.8765 99.4325 20.3758 99.9893Z" fill="#94B6BF"/>
    <path fill-rule="evenodd" clip-rule="evenodd" d="M63.895 24.7105C61.1023 26.8989 59.2405 28.2119 52.7243 27.3365C47.7309 31.2806 40.5968 29.2553 35.5028 26.4612C34.3338 27.5604 32.558 27.5232 30.7474 27.4854C29.1189 27.4513 27.4622 27.4167 26.1938 28.2079C23.9082 29.6335 23.0171 32.5304 22.674 34.7769C17.5816 37.7888 15.4976 40.5506 11.7972 45.4997C10.6365 38.7981 11.0432 35.135 13.1613 29.9625C13.1613 29.9625 10.3686 27.3365 10.3686 21.6468C10.3686 12.6747 22.7508 11.0028 22.7508 11.0028C22.7508 11.0028 24.7473 0.00326136 34.7302 0.0047273C34.7488 0.00473003 34.7847 0.00438627 34.8372 0.00388304C37.6062 -0.0226496 86.6411 -0.492502 86.6411 26.0034C89.5981 27.7805 88.215 33.3926 86.9113 38.6829C86.0143 42.3228 85.1549 45.8104 85.7724 47.7917C85.7724 47.7917 82.726 47.8957 82.1039 51.8596C82.3263 50.151 83.1471 43.7298 83.1471 42.001C83.1471 38.2838 74.6002 37.8405 74.6002 37.8405C74.6002 37.8405 74.7292 36.3852 74.5551 34.558C74.2614 31.4763 73.1056 27.3365 69.0149 27.3365C66.6876 27.3365 64.8259 26.4612 63.895 24.7105Z" fill="#4D3F36"/>
    <path d="M79.2561 57.094C79.2561 57.094 80.7787 57.0939 81.615 54.4679C81.8023 53.88 81.9551 53.1604 82.0488 52.2796C82.0642 52.135 82.0826 51.9951 82.1039 51.8596C82.3263 50.151 83.1471 43.7298 83.1471 42.001C83.1471 38.2838 74.6002 37.8405 74.6002 37.8405C77.99 40.6739 78.9424 45.2241 79.1825 51.9594C79.2391 53.5474 79.2561 55.2569 79.2561 57.094Z" fill="#36312B"/>
    <path d="M38.3233 69.5626C37.4129 70.2483 37.8681 71.3911 37.8681 71.3911C41.8463 75.4968 56.4979 75.3393 59.7161 71.3911C59.7161 71.3911 60.1713 70.2483 59.2609 69.5627C58.5782 69.0484 54.4114 70.6565 50.5324 70.6565C43.2306 70.6565 40.2672 68.0985 38.3233 69.5626Z" fill="#DE6655"/>
</svg>
