<svg width="98" height="128" viewBox="0 0 98 128" fill="none" xmlns="http://www.w3.org/2000/svg">
    <path d="M18.7467 57.0979C18.7467 56.193 18.7426 55.3171 18.7386 54.4733C18.7003 46.3399 18.6752 41.0126 22.4703 37.8405C22.4703 37.8405 22.4109 36.5001 22.674 34.7769C17.5816 37.7888 15.4976 40.5506 11.7972 45.4997C11.9232 46.2273 12.0676 46.9906 12.2304 47.7956C12.2304 47.7956 15.4885 47.9069 15.954 52.2836C16.0476 53.1643 16.2005 53.8839 16.3878 54.4719C17.2241 57.0979 18.7467 57.0979 18.7467 57.0979Z" fill="#36312B"/>
    <path d="M6.64512 57.0979C6.64512 68.4707 18.2015 68.2977 20.9554 68.095C20.2758 66.1485 19.7498 64.0817 19.3642 61.9122C19.3642 61.9122 18.2686 62.0856 16.8849 62.0334C14.4605 61.9418 11.1514 61.1578 11.2995 57.5356C11.4784 53.1621 15.954 52.2836 15.954 52.2836C15.4885 47.9069 12.2304 47.7956 12.2304 47.7956C9.79365 48.8504 6.64512 51.3294 6.64512 57.0979Z" fill="#F3BCA8"/>
    <path d="M15.954 52.2836C15.954 52.2836 11.4784 53.1621 11.2995 57.5356C11.1514 61.1578 14.4605 61.9418 16.8849 62.0334C16.8849 62.0334 17.8158 61.0369 16.3878 59.7239C15.478 58.4595 13.6268 57.9732 13.6268 56.2226C13.6268 54.2531 16.3878 54.4719 16.3878 54.4719C16.2005 53.8839 16.0476 53.1643 15.954 52.2836Z" fill="#DE6655"/>
    <path d="M19.3642 61.9122C19.0879 60.3581 18.8837 58.7512 18.7467 57.0979C18.7467 57.0979 17.2241 57.0979 16.3878 54.4719C16.3878 54.4719 13.6268 54.2531 13.6268 56.2226C13.6268 57.9732 15.478 58.4595 16.3878 59.7239C17.8158 61.0369 16.8849 62.0334 16.8849 62.0334C18.2686 62.0856 19.3642 61.9122 19.3642 61.9122Z" fill="#ED9182"/>
    <path d="M77.0473 68.091C79.8012 68.2937 91.3577 68.4668 91.3577 57.094C91.3577 51.3254 88.2091 48.8465 85.7724 47.7917C85.7724 47.7917 82.726 47.8957 82.1039 51.8596C82.0826 51.9951 82.0642 52.135 82.0488 52.2796C82.0488 52.2796 86.5244 53.1582 86.7032 57.5316C86.8514 61.1539 83.5423 61.9379 81.1179 62.0294C79.7341 62.0816 78.6379 61.9122 78.6379 61.9122C78.2523 64.0802 77.7265 66.1456 77.0473 68.091Z" fill="#F3BCA8"/>
    <path d="M86.7032 57.5316C86.5244 53.1582 82.0488 52.2796 82.0488 52.2796C81.9551 53.1604 81.8023 53.88 81.615 54.4679C81.615 54.4679 84.376 54.2491 84.376 56.2186C84.376 57.9693 82.5248 58.4555 81.615 59.72C80.187 61.033 81.1179 62.0294 81.1179 62.0294C83.5423 61.9379 86.8514 61.1539 86.7032 57.5316Z" fill="#DE6655"/>
    <path d="M81.615 54.4679C80.7787 57.0939 79.2561 57.094 79.2561 57.094C79.119 58.7486 78.9145 60.3568 78.6379 61.9122C78.6379 61.9122 79.7341 62.0816 81.1179 62.0294C81.1179 62.0294 80.187 61.033 81.615 59.72C82.5248 58.4555 84.376 57.9693 84.376 56.2186C84.376 54.2491 81.615 54.4679 81.615 54.4679Z" fill="#ED9182"/>
    <path d="M25.7283 43.5302C25.2629 39.3724 40.6226 36.5275 40.6226 39.5912C40.6226 40.9298 40.0784 40.989 36.9096 41.334C35.9339 41.4402 34.7095 41.5735 33.1755 41.7795C31.7798 41.967 29.932 42.5134 28.4262 42.9587C26.918 43.4047 25.7529 43.7492 25.7283 43.5302Z" fill="#36312B"/>
    <path d="M72.273 43.5302C72.7384 39.3724 57.3787 36.5275 57.3787 39.5912C57.3787 40.9298 57.9229 40.989 61.0918 41.334C62.0674 41.4402 63.2919 41.5735 64.8259 41.7795C66.2215 41.967 68.0693 42.5134 69.5751 42.9587C71.0833 43.4047 72.2485 43.7492 72.273 43.5302Z" fill="#36312B"/>
    <path d="M61.1023 52.2836C61.1023 54.9424 62.6896 57.0979 64.3605 57.0979C66.6877 57.0979 67.1532 54.9424 67.1532 52.2836C67.1532 49.6247 65.5659 47.4692 63.895 47.4692C61.5678 47.4692 61.1023 49.6247 61.1023 52.2836Z" fill="#36312B"/>
    <path d="M36.8991 52.2836C36.8991 54.9424 35.3118 57.0979 33.6409 57.0979C31.3137 57.0979 30.8483 54.9424 30.8483 52.2836C30.8483 49.6247 32.4355 47.4692 34.1064 47.4692C36.4336 47.4692 36.8991 49.6247 36.8991 52.2836Z" fill="#36312B"/>
    <path d="M35.0373 61.0369C35.0373 62.9706 32.6408 64.5382 29.6846 64.5382C26.7285 64.5382 24.332 63.6629 24.332 61.0369C24.332 59.1032 26.7285 57.5356 29.6846 57.5356C32.6408 57.5356 35.0373 58.4109 35.0373 61.0369Z" fill="#ED9182"/>
    <path d="M62.9641 61.0369C62.9641 59.1032 65.3606 57.5356 68.3168 57.5356C71.2729 57.5356 73.6694 58.4109 73.6694 61.0369C73.6694 62.9706 71.2729 64.5382 68.3168 64.5382C65.3606 64.5382 62.9641 63.6629 62.9641 61.0369Z" fill="#ED9182"/>
    <path d="M49.9316 54.4719C49.9316 53.9885 49.5148 53.5966 49.0007 53.5966C48.4865 53.5966 48.0698 53.9885 48.0698 54.4719V54.4999C48.0698 57.8461 48.0698 58.1556 47.6154 60.9024C47.5364 61.3801 47.8841 61.8275 48.3921 61.9018C48.9001 61.9761 49.376 61.6491 49.455 61.1714C49.9303 58.2987 49.9316 57.8988 49.9316 54.4719Z" fill="#DE6655"/>
    <path fill-rule="evenodd" clip-rule="evenodd" d="M35.5028 26.4612C34.3338 27.5604 32.558 27.5232 30.7474 27.4854C29.1189 27.4513 27.4622 27.4167 26.1938 28.2079C23.9082 29.6335 23.0171 32.5304 22.674 34.7769C22.4109 36.5001 22.4703 37.8405 22.4703 37.8405C18.6752 41.0126 18.7003 46.3399 18.7386 54.4733C18.7426 55.3171 18.7467 56.193 18.7467 57.0979C18.8837 58.7512 19.0879 60.3581 19.3642 61.9122C19.7498 64.0817 20.2758 66.1485 20.9554 68.095C23.3315 74.9007 27.5847 80.2367 34.2773 83.3579C38.2748 85.2223 43.1427 86.2964 49.0007 86.4216C54.8579 86.2964 59.7253 85.2222 63.7227 83.3579C70.4167 80.236 74.6708 74.8983 77.0473 68.091C77.7265 66.1456 78.2523 64.0802 78.6379 61.9122C78.9145 60.3568 79.119 58.7486 79.2561 57.094C79.2561 55.2569 79.2391 53.5474 79.1825 51.9594C78.9424 45.2241 77.99 40.6739 74.6002 37.8405C74.6002 37.8405 74.7292 36.3852 74.5551 34.558C74.2614 31.4763 73.1056 27.3365 69.0149 27.3365C66.6876 27.3365 64.8259 26.4612 63.895 24.7105C61.1023 26.8989 59.2405 28.2119 52.7243 27.3365C47.7309 31.2806 40.5968 29.2553 35.5028 26.4612ZM40.6226 39.5912C40.6226 36.5275 25.2629 39.3724 25.7283 43.5302C25.7529 43.7492 26.918 43.4047 28.4262 42.9587C29.932 42.5134 31.7798 41.967 33.1755 41.7795C34.7095 41.5735 35.9339 41.4402 36.9096 41.334C40.0784 40.989 40.6226 40.9298 40.6226 39.5912ZM57.3787 39.5912C57.3787 36.5275 72.7384 39.3724 72.273 43.5302C72.2485 43.7492 71.0833 43.4047 69.5751 42.9587C68.0693 42.5134 66.2215 41.967 64.8259 41.7795C63.2919 41.5735 62.0674 41.4402 61.0918 41.334C57.9229 40.989 57.3787 40.9298 57.3787 39.5912ZM33.6409 57.0979C35.3118 57.0979 36.8991 54.9424 36.8991 52.2836C36.8991 49.6247 36.4336 47.4692 34.1064 47.4692C32.4355 47.4692 30.8483 49.6247 30.8483 52.2836C30.8483 54.9424 31.3137 57.0979 33.6409 57.0979ZM64.3605 57.0979C62.6896 57.0979 61.1023 54.9424 61.1023 52.2836C61.1023 49.6247 61.5678 47.4692 63.895 47.4692C65.5659 47.4692 67.1532 49.6247 67.1532 52.2836C67.1532 54.9424 66.6877 57.0979 64.3605 57.0979ZM29.6846 64.5382C32.6408 64.5382 35.0373 62.9706 35.0373 61.0369C35.0373 58.4109 32.6408 57.5356 29.6846 57.5356C26.7285 57.5356 24.332 59.1032 24.332 61.0369C24.332 63.6629 26.7285 64.5382 29.6846 64.5382ZM68.3168 57.5356C65.3606 57.5356 62.9641 59.1032 62.9641 61.0369C62.9641 63.6629 65.3606 64.5382 68.3168 64.5382C71.2729 64.5382 73.6694 62.9706 73.6694 61.0369C73.6694 58.4109 71.2729 57.5356 68.3168 57.5356ZM49.0007 53.5966C49.5148 53.5966 49.9316 53.9885 49.9316 54.4719C49.9316 57.8988 49.9303 58.2987 49.455 61.1714C49.376 61.6491 48.9001 61.9761 48.3921 61.9018C47.8841 61.8275 47.5364 61.3801 47.6154 60.9024C48.0698 58.1556 48.0698 57.8461 48.0698 54.4999V54.4719C48.0698 53.9885 48.4865 53.5966 49.0007 53.5966Z" fill="#F4C7B0"/>
    <path d="M63.7227 83.3579C59.7253 85.2222 54.8579 86.2964 49.0007 86.4216C43.1427 86.2964 38.2748 85.2223 34.2773 83.3579C34.3084 83.9204 34.5893 86.005 34.6438 88.1723C34.6438 88.1723 39.2249 94.2996 49 94.2996C58.7751 94.2996 63.3562 88.1723 63.3562 88.1723C63.4106 86.005 63.6916 83.9204 63.7227 83.3579Z" fill="#DE6655"/>
    <path d="M64.1263 93.2054C63.4443 92.1794 63.3067 90.1417 63.3562 88.1723C63.3562 88.1723 58.7751 94.2996 49 94.2996C39.2249 94.2996 34.6438 88.1723 34.6438 88.1723C34.6933 90.1417 34.5557 92.1794 33.8737 93.2054C33.2845 94.092 32.3889 94.8678 31.3138 95.5566C31.2763 95.5814 30.6496 96.0316 31.7792 97.8009C33.8737 101.082 39.6918 105.46 49 105.241C58.3082 105.46 64.1263 101.082 66.2208 97.8009C67.3504 96.0316 66.7237 95.5814 66.6862 95.5566C65.6111 94.8678 64.7155 94.092 64.1263 93.2054Z" fill="#F4C7B0"/>
    <path d="M49 105.241C39.6918 105.46 33.8737 101.082 31.7792 97.8009C30.6496 96.0316 31.2763 95.5814 31.3138 95.5566C30.4729 96.0951 29.5206 96.4821 28.5211 96.9256C28.3582 102.838 37.3646 108.743 49 108.743C60.6354 108.743 69.6418 102.838 69.4789 96.9256C68.4793 96.4821 67.5271 96.0951 66.6862 95.5566C66.7237 95.5814 67.3504 96.0316 66.2208 97.8009C64.1263 101.082 58.3082 105.46 49 105.241Z" fill="#FCFCFC"/>
    <path d="M28.5211 96.9256C28.2884 96.2691 25.7866 97.1275 25.7284 98.2386C27.5902 106.117 36.8992 111.369 49 111.369C61.1009 111.369 70.4098 106.117 72.2716 98.2386C72.2134 97.1275 69.7116 96.2691 69.4789 96.9256C69.6418 102.838 60.6354 108.743 49 108.743C37.3646 108.743 28.3582 102.838 28.5211 96.9256Z" fill="#779EA5"/>
    <path fill-rule="evenodd" clip-rule="evenodd" d="M11.6017 115.454C11.4308 114.747 10.6827 114.304 9.93067 114.465C9.17867 114.626 8.70759 115.329 8.8785 116.036C9.67568 119.335 11.0221 122.413 13.0001 125.46C13.5742 125.561 14.1708 125.662 14.7905 125.761C15.3991 125.859 16.0301 125.955 16.6839 126.05C16.6435 125.937 16.586 125.827 16.5107 125.724C14.041 122.347 12.4662 119.031 11.6017 115.454Z" fill="#779EA5"/>
    <path fill-rule="evenodd" clip-rule="evenodd" d="M86.1426 115.454C86.3136 114.747 87.0617 114.304 87.8137 114.465C88.5657 114.626 89.0368 115.329 88.8659 116.036C88.0643 119.353 86.7074 122.448 84.7114 125.511C83.5775 125.708 82.3577 125.901 81.0473 126.088C81.088 125.962 81.1498 125.839 81.2337 125.724C83.7033 122.347 85.2782 119.031 86.1426 115.454Z" fill="#779EA5"/>
    <path d="M20.3758 99.9893C-2.89657 108.624 0.128819 121.873 0.128819 121.873C0.128819 121.873 3.4526 123.775 13.0001 125.46C11.0221 122.413 9.67568 119.335 8.8785 116.036C8.70759 115.329 9.17867 114.626 9.93067 114.465C10.6827 114.304 11.4308 114.747 11.6017 115.454C12.4662 119.031 14.041 122.347 16.5107 125.724C16.586 125.827 16.6435 125.937 16.6839 126.05C24.1617 127.132 34.636 128 49 128C63.1928 128 73.588 127.153 81.0473 126.088C81.088 125.962 81.1498 125.839 81.2337 125.724C83.7033 122.347 85.2782 119.031 86.1426 115.454C86.3136 114.747 87.0617 114.304 87.8137 114.465C88.5657 114.626 89.0368 115.329 88.8659 116.036C88.0643 119.353 86.7074 122.448 84.7114 125.511C94.4806 123.814 97.8712 121.873 97.8712 121.873C97.8712 121.873 100.897 108.624 77.6242 99.9893C76.1235 99.4325 74.208 98.9416 72.2716 98.2386C70.4098 106.117 61.1009 111.369 49 111.369C36.8992 111.369 27.5902 106.117 25.7284 98.2386C23.792 98.9416 21.8765 99.4325 20.3758 99.9893Z" fill="#94B6BF"/>
    <path fill-rule="evenodd" clip-rule="evenodd" d="M63.895 24.7105C61.1023 26.8989 59.2405 28.2119 52.7243 27.3365C47.7309 31.2806 40.5968 29.2553 35.5028 26.4612C34.3338 27.5604 32.558 27.5232 30.7474 27.4854C29.1189 27.4513 27.4622 27.4167 26.1938 28.2079C23.9082 29.6335 23.0171 32.5304 22.674 34.7769C17.5816 37.7888 15.4976 40.5506 11.7972 45.4997C10.6365 38.7981 11.0432 35.135 13.1613 29.9625C13.1613 29.9625 10.3686 27.3365 10.3686 21.6468C10.3686 12.6747 22.7508 11.0028 22.7508 11.0028C22.7508 11.0028 24.7473 0.00326136 34.7302 0.0047273C34.7488 0.00473003 34.7847 0.00438627 34.8372 0.00388304C37.6062 -0.0226496 86.6411 -0.492502 86.6411 26.0034C89.5981 27.7805 88.215 33.3926 86.9113 38.6829C86.0143 42.3228 85.1549 45.8104 85.7724 47.7917C85.7724 47.7917 82.726 47.8957 82.1039 51.8596C82.3263 50.151 83.1471 43.7298 83.1471 42.001C83.1471 38.2838 74.6002 37.8405 74.6002 37.8405C74.6002 37.8405 74.7292 36.3852 74.5551 34.558C74.2614 31.4763 73.1056 27.3365 69.0149 27.3365C66.6876 27.3365 64.8259 26.4612 63.895 24.7105Z" fill="#4D3F36"/>
    <path d="M79.2561 57.094C79.2561 57.094 80.7787 57.0939 81.615 54.4679C81.8023 53.88 81.9551 53.1604 82.0488 52.2796C82.0642 52.135 82.0826 51.9951 82.1039 51.8596C82.3263 50.151 83.1471 43.7298 83.1471 42.001C83.1471 38.2838 74.6002 37.8405 74.6002 37.8405C77.99 40.6739 78.9424 45.2241 79.1825 51.9594C79.2391 53.5474 79.2561 55.2569 79.2561 57.094Z" fill="#36312B"/>
    <path fill-rule="evenodd" clip-rule="evenodd" d="M43.5712 64.575L44.4205 64.3921L44.2296 64.0463L43.3803 64.2292L43.5712 64.575ZM40.7402 65.1847L42.4388 64.8189L42.2479 64.4731L40.5493 64.8389L40.7402 65.1847ZM37.9092 65.7945L39.6078 65.4286L39.4168 65.0828L37.7182 65.4486L37.9092 65.7945ZM35.0782 66.4042L36.7768 66.0383L36.5858 65.6925L34.8872 66.0583L35.0782 66.4042ZM32.2471 67.0139L33.9457 66.6481L33.7548 66.3022L32.0562 66.6681L32.2471 67.0139ZM29.4161 67.6236L31.1147 67.2578L30.9238 66.9119L29.2252 67.2778L29.4161 67.6236ZM27.4344 68.0504L28.2837 67.8675L28.0928 67.5217L27.2435 67.7046L27.4344 68.0504Z" fill="#BFD8D4"/>
    <path fill-rule="evenodd" clip-rule="evenodd" d="M45.2015 79.9599L46.0508 80.1428L45.8598 80.4887L45.0105 80.3058L45.2015 79.9599ZM42.3705 79.3502L44.0691 79.716L43.8781 80.0619L42.1795 79.6961L42.3705 79.3502ZM39.5395 78.7405L41.2381 79.1063L41.0471 79.4522L39.3485 79.0863L39.5395 78.7405ZM36.7084 78.1308L38.407 78.4966L38.2161 78.8425L36.5175 78.4766L36.7084 78.1308ZM33.8774 77.5211L35.576 77.8869L35.3851 78.2327L33.6865 77.8669L33.8774 77.5211Z" fill="#BFD8D4"/>
    <path d="M48.4383 60.7459C48.5543 60.2303 48.656 59.7962 48.7355 59.4645C45.0363 59.5114 34.2203 60.9387 31.121 61.6583L31.9293 62.7558C35.0066 62.0413 41.8123 60.8035 48.4383 60.7459Z" fill="#BFD8D4"/>
    <path fill-rule="evenodd" clip-rule="evenodd" d="M29.9944 80.0794C29.7305 80.1535 29.4027 80.2421 29.0318 80.3351C33.4267 84.2477 40.2868 87.2666 48.9152 87.2666C48.9152 87.2666 46.5725 79.5841 46.5725 74.0966C46.5725 69.6816 47.7533 63.7916 48.4383 60.7459C41.8123 60.8035 35.0066 62.0413 31.9293 62.7558L31.121 61.6583C34.2203 60.9387 45.0363 59.5114 48.7355 59.4645C48.8477 58.9957 48.9154 58.7317 48.9154 58.7317C42.9986 58.7375 28.2837 59.9757 25.1934 61.9177C24.5121 62.3459 23.7012 63.0023 23.3224 65.549C23.5521 65.6016 23.7556 65.6378 23.9388 65.6591C24.1952 65.2347 24.6611 64.9508 25.1934 64.9508C26.0021 64.9508 26.6577 65.606 26.6577 66.4142C26.6577 67.2223 26.0021 67.8775 25.1934 67.8775C24.6465 67.8775 24.1695 67.5778 23.9181 67.1338C23.6586 67.1182 23.4043 67.0884 23.1566 67.0486C22.9589 71.4296 24.7098 75.8959 27.7344 79.0804C28.0307 79.0106 28.307 78.9407 28.5525 78.8758C28.2731 78.3146 28.421 77.7881 28.9798 77.5866C29.6926 77.3295 30.8043 77.6987 31.4628 78.411C32.1213 79.1234 32.0773 79.9093 31.3644 80.1663C30.9794 80.3052 30.4779 80.2613 29.9944 80.0794ZM43.5712 64.575L44.4205 64.3921L44.2296 64.0463L43.3803 64.2292L43.5712 64.575ZM40.7402 65.1847L42.4388 64.8189L42.2479 64.4731L40.5493 64.8389L40.7402 65.1847ZM37.9092 65.7945L39.6078 65.4286L39.4168 65.0828L37.7182 65.4486L37.9092 65.7945ZM35.0782 66.4042L36.7768 66.0383L36.5858 65.6925L34.8872 66.0583L35.0782 66.4042ZM32.2471 67.0139L33.9457 66.6481L33.7548 66.3022L32.0562 66.6681L32.2471 67.0139ZM29.4161 67.6236L31.1147 67.2578L30.9238 66.9119L29.2252 67.2778L29.4161 67.6236ZM27.4344 68.0504L28.2837 67.8675L28.0928 67.5217L27.2435 67.7046L27.4344 68.0504ZM45.2015 79.9599L46.0508 80.1428L45.8598 80.4887L45.0105 80.3058L45.2015 79.9599ZM42.3705 79.3502L44.0691 79.716L43.8781 80.0619L42.1795 79.6961L42.3705 79.3502ZM39.5395 78.7405L41.2381 79.1063L41.0471 79.4522L39.3485 79.0863L39.5395 78.7405ZM36.7084 78.1308L38.407 78.4966L38.2161 78.8425L36.5175 78.4766L36.7084 78.1308ZM33.8774 77.5211L35.576 77.8869L35.3851 78.2327L33.6865 77.8669L33.8774 77.5211Z" fill="white"/>
    <path fill-rule="evenodd" clip-rule="evenodd" d="M54.2609 64.5755L53.4116 64.3926L53.6025 64.0468L54.4519 64.2297L54.2609 64.5755ZM57.0919 65.1852L55.3933 64.8194L55.5843 64.4735L57.2829 64.8394L57.0919 65.1852ZM59.923 65.795L58.2243 65.4291L58.4153 65.0833L60.1139 65.4491L59.923 65.795ZM62.754 66.4047L61.0554 66.0388L61.2463 65.693L62.9449 66.0588L62.754 66.4047ZM65.585 67.0144L63.8864 66.6486L64.0773 66.3027L65.7759 66.6685L65.585 67.0144ZM68.416 67.6241L66.7174 67.2583L66.9083 66.9124L68.6069 67.2783L68.416 67.6241ZM70.3977 68.0509L69.5484 67.868L69.7393 67.5221L70.5887 67.7051L70.3977 68.0509Z" fill="#BFD8D4"/>
    <path fill-rule="evenodd" clip-rule="evenodd" d="M52.6306 79.9604L51.7813 80.1433L51.9723 80.4892L52.8216 80.3063L52.6306 79.9604ZM55.4617 79.3507L53.7631 79.7165L53.954 80.0624L55.6526 79.6966L55.4617 79.3507ZM58.2927 78.741L56.5941 79.1068L56.785 79.4527L58.4836 79.0868L58.2927 78.741ZM61.1237 78.1313L59.4251 78.4971L59.616 78.8429L61.3146 78.4771L61.1237 78.1313ZM63.9547 77.5215L62.2561 77.8874L62.447 78.2332L64.1457 77.8674L63.9547 77.5215Z" fill="#BFD8D4"/>
    <path d="M49.3938 60.7464C49.2778 60.2307 49.1761 59.7967 49.0967 59.465C52.7958 59.5119 63.6119 60.9392 66.7112 61.6588L65.9028 62.7563C62.8255 62.0418 56.0198 60.804 49.3938 60.7464Z" fill="#BFD8D4"/>
    <path fill-rule="evenodd" clip-rule="evenodd" d="M67.8378 80.0798C68.1017 80.154 68.4294 80.2426 68.8003 80.3356C64.4054 84.2482 57.5453 87.2671 48.9169 87.2671C48.9169 87.2671 51.2596 79.5846 51.2596 74.0971C51.2596 69.6821 50.0789 63.7921 49.3938 60.7464C56.0198 60.804 62.8255 62.0418 65.9028 62.7563L66.7112 61.6588C63.6119 60.9392 52.7958 59.5119 49.0967 59.465C48.9844 58.9962 48.9167 58.7322 48.9167 58.7322C54.8335 58.738 69.5484 59.9762 72.6387 61.9182C73.32 62.3463 74.1309 63.0028 74.5097 65.5495C74.28 65.6021 74.0765 65.6383 73.8933 65.6596C73.6369 65.2351 73.171 64.9513 72.6387 64.9513C71.83 64.9513 71.1744 65.6065 71.1744 66.4146C71.1744 67.2228 71.83 67.878 72.6387 67.878C73.1857 67.878 73.6626 67.5783 73.914 67.1343C74.1735 67.1187 74.4278 67.0889 74.6755 67.0491C74.8732 71.4301 73.1223 75.8964 70.0978 79.0809C69.8014 79.0111 69.5251 78.9412 69.2796 78.8763C69.559 78.315 69.4111 77.7886 68.8523 77.5871C68.1395 77.33 67.0278 77.6992 66.3693 78.4115C65.7108 79.1239 65.7548 79.9098 66.4677 80.1668C66.8528 80.3057 67.3542 80.2618 67.8378 80.0798ZM54.2609 64.5755L53.4116 64.3926L53.6025 64.0468L54.4519 64.2297L54.2609 64.5755ZM57.0919 65.1852L55.3933 64.8194L55.5843 64.4735L57.2829 64.8394L57.0919 65.1852ZM59.923 65.795L58.2243 65.4291L58.4153 65.0833L60.1139 65.4491L59.923 65.795ZM62.754 66.4047L61.0554 66.0388L61.2463 65.693L62.9449 66.0588L62.754 66.4047ZM65.585 67.0144L63.8864 66.6486L64.0773 66.3027L65.7759 66.6685L65.585 67.0144ZM68.416 67.6241L66.7174 67.2583L66.9083 66.9124L68.6069 67.2783L68.416 67.6241ZM70.3977 68.0509L69.5484 67.868L69.7393 67.5221L70.5887 67.7051L70.3977 68.0509ZM52.6306 79.9604L51.7813 80.1433L51.9723 80.4892L52.8216 80.3063L52.6306 79.9604ZM55.4617 79.3507L53.7631 79.7165L53.954 80.0624L55.6526 79.6966L55.4617 79.3507ZM58.2927 78.741L56.5941 79.1068L56.785 79.4527L58.4836 79.0868L58.2927 78.741ZM61.1237 78.1313L59.4251 78.4971L59.616 78.8429L61.3146 78.4771L61.1237 78.1313ZM63.9547 77.5215L62.2561 77.8874L62.447 78.2332L64.1457 77.8674L63.9547 77.5215Z" fill="white"/>
    <path d="M48.9152 58C48.9152 58 30.226 58 24.6292 61.3748C22.9989 62.3012 22.1538 64.3425 21.9984 66.7929C21.1084 80.8179 36.8838 87.9982 48.9161 87.9983L48.9152 87.2666C40.2868 87.2666 33.4267 84.2477 29.0318 80.3351C29.4027 80.2421 29.7305 80.1535 29.9944 80.0794C30.4779 80.2613 30.9794 80.3052 31.3644 80.1663C32.0773 79.9093 32.1213 79.1234 31.4628 78.411C30.8043 77.6987 29.6926 77.3295 28.9798 77.5866C28.421 77.7881 28.2731 78.3146 28.5525 78.8758C28.307 78.9407 28.0307 79.0106 27.7344 79.0804C24.7098 75.8959 22.9589 71.4296 23.1566 67.0486C23.4043 67.0884 23.6586 67.1182 23.9181 67.1338C24.1695 67.5778 24.6465 67.8775 25.1934 67.8775C26.0021 67.8775 26.6577 67.2223 26.6577 66.4142C26.6577 65.606 26.0021 64.9508 25.1934 64.9508C24.6611 64.9508 24.1952 65.2347 23.9388 65.6591C23.7556 65.6378 23.5521 65.6016 23.3224 65.549C23.7012 63.0023 24.5121 62.3459 25.1934 61.9177C28.2837 59.9757 42.9986 58.7375 48.9154 58.7317L48.9167 58.7322C54.8335 58.738 69.5484 59.9762 72.6387 61.9182C73.32 62.3463 74.1309 63.0028 74.5097 65.5495C74.28 65.6021 74.0765 65.6383 73.8933 65.6596C73.6369 65.2351 73.171 64.9513 72.6387 64.9513C71.83 64.9513 71.1744 65.6065 71.1744 66.4146C71.1744 67.2228 71.83 67.878 72.6387 67.878C73.1857 67.878 73.6626 67.5783 73.914 67.1343C74.1735 67.1187 74.4278 67.0889 74.6755 67.0491C74.8732 71.4301 73.1223 75.8964 70.0978 79.0809C69.8014 79.0111 69.5251 78.9412 69.2796 78.8763C69.559 78.315 69.4111 77.7886 68.8523 77.5871C68.1395 77.33 67.0278 77.6992 66.3693 78.4115C65.7108 79.1239 65.7548 79.9098 66.4677 80.1668C66.8528 80.3057 67.3542 80.2618 67.8378 80.0798C68.1017 80.154 68.4294 80.2426 68.8003 80.3356C64.4054 84.2482 57.5453 87.2671 48.9169 87.2671L48.9161 87.9983C60.9484 87.9982 76.7237 80.8184 75.8338 66.7934C75.6783 64.343 74.8333 62.3017 73.2029 61.3753C67.6061 58.0005 48.9169 58.0005 48.9169 58.0005L48.9152 58Z" fill="#D7EAE8"/>
    <path d="M46.5725 74.0966C46.5725 79.5841 48.9152 87.2666 48.9152 87.2666L48.9161 87.9983L48.9169 87.2671C48.9169 87.2671 51.2596 79.5846 51.2596 74.0971C51.2596 69.6821 50.0789 63.7921 49.3938 60.7464C49.2778 60.2307 49.1761 59.7967 49.0967 59.465C48.9844 58.9962 48.9167 58.7322 48.9167 58.7322L48.9154 58.7317C48.9154 58.7317 48.8477 58.9957 48.7355 59.4645C48.656 59.7962 48.5543 60.2303 48.4383 60.7459C47.7533 63.7916 46.5725 69.6816 46.5725 74.0966Z" fill="#D7EAE8"/>
</svg>
